<svg width="24" height="24" viewBox="0 0 24 24" fill="none" xmlns="http://www.w3.org/2000/svg">
<path d="M1.41895 0L3.34495 21.6L11.9879 24L20.6534 21.597L22.5824 0H1.42045H1.41895ZM19.0019 20.223L12.0359 22.1535V22.164L12.0179 22.158L11.9999 22.164V22.1535L5.03395 20.223L3.38695 1.767H20.6489L19.0019 20.223ZM15.2519 12.426L14.9459 15.861L11.9879 16.659L9.03745 15.864L8.84845 13.749H6.18895L6.55945 17.91L11.9984 19.4145L17.4209 17.91L18.1484 9.777H8.49295L8.25145 7.0635H18.3884L18.6254 4.4145H5.35495L6.07045 12.426H15.2519Z" fill="#F1662A"/>
</svg>
