<svg width="24" height="24" viewBox="0 0 24 24" fill="none" xmlns="http://www.w3.org/2000/svg">
<path d="M7.13953 14.7952L7.86891 17.1618C8.03278 17.6991 8.10113 18.0742 8.07375 18.288C8.47266 17.2196 8.75137 16.0553 8.90995 14.7952H9.78698C9.40988 16.8467 8.91248 18.3375 8.29509 19.2675C7.81406 19.9842 7.28709 20.3425 6.71325 20.3425C6.56025 20.3425 6.37162 20.2963 6.1478 20.2045V19.71C6.25716 19.726 6.38545 19.7346 6.53302 19.7346C6.80072 19.7346 7.01648 19.6604 7.18064 19.5123C7.37719 19.3319 7.47558 19.1291 7.47558 18.9043C7.47558 18.7509 7.39884 18.4359 7.24608 17.9595L6.22983 14.7952H7.13953ZM1.55733 13.3406L2.89327 17.4167H2.90152L4.24566 13.3406H5.34384C5.58431 15.362 5.72634 17.2116 5.76994 18.8881H4.84406C4.81148 17.3209 4.72125 15.8472 4.57369 14.4668H4.56563L3.15572 18.8881H2.45062L1.04925 14.4668H1.041C0.937031 15.7925 0.871594 17.2662 0.844312 18.8881H0C0.0545625 16.9156 0.191109 15.0666 0.409641 13.3406H1.55733Z" fill="#00758F"/>
<path d="M16.5235 13.2583C17.9605 13.2583 18.679 14.1764 18.679 16.0117C18.679 17.009 18.463 17.7623 18.0312 18.2712C17.9534 18.3642 17.8674 18.4446 17.7768 18.519L18.7937 19.0218L18.7928 19.0218L18.4317 19.6453L17.1073 18.8726C16.8878 18.9376 16.6463 18.9701 16.3831 18.9701C15.6775 18.9701 15.1504 18.7645 14.8019 18.3537C14.4194 17.8993 14.2283 17.1839 14.2283 16.2088C14.2283 15.2171 14.444 14.4667 14.8759 13.9571C15.2693 13.491 15.8185 13.2583 16.5235 13.2583ZM12.1228 13.2663C12.6364 13.2663 13.1035 13.4038 13.5241 13.6777L13.3105 14.1538C12.9505 14.0008 12.5956 13.924 12.2456 13.924C11.9617 13.924 11.7429 13.9923 11.5903 14.1298C11.437 14.2661 11.3421 14.4416 11.3421 14.6554C11.3421 14.984 11.5762 15.2689 12.0084 15.5097C12.15 15.5871 12.2911 15.6654 12.4317 15.7446L12.464 15.7627L12.4802 15.7718L12.5125 15.79L12.5286 15.7991L12.5608 15.8172C12.888 16.0017 13.1959 16.1778 13.1959 16.1778C13.6281 16.4846 13.8435 16.8116 13.8435 17.3504C13.8435 17.8209 13.6711 18.2071 13.3274 18.5093C12.9835 18.8101 12.5215 18.961 11.9428 18.961C11.4017 18.961 10.8772 18.7873 10.3691 18.443L10.6068 17.9665C11.044 18.1856 11.4396 18.2951 11.7949 18.2951C12.1281 18.2951 12.3889 18.2207 12.5776 18.0738C12.7659 17.9258 12.8787 17.7194 12.8787 17.4577C12.8787 17.1283 12.6496 16.8467 12.2292 16.6105C12.0977 16.5378 11.9665 16.4644 11.8357 16.3903L11.8035 16.3721C11.7444 16.3387 11.6848 16.3048 11.6264 16.2717L11.5948 16.2537C11.311 16.0923 11.0656 15.9512 11.0656 15.9512C10.6454 15.6438 10.4347 15.3141 10.4347 14.7707C10.4347 14.3213 10.5918 13.9581 10.9056 13.6818C11.2201 13.4048 11.6259 13.2663 12.1228 13.2663ZM20.3679 13.3406V18.2057H22.1134V18.8881H19.4826V13.3406H20.3679ZM23.0834 18.2078V18.3231H22.8915V18.8875H22.7447V18.3231H22.5454V18.2078H23.0834H23.0834ZM23.4377 18.2078L23.622 18.6711L23.7913 18.2078H23.9993V18.8875H23.861V18.3702L23.6683 18.8875H23.5686L23.3756 18.3702H23.3682V18.8875H23.2374V18.2078H23.4378H23.4377ZM16.4331 13.9405C15.5862 13.9405 15.1626 14.6394 15.1626 16.0363C15.1626 16.8364 15.2748 17.4167 15.499 17.7783C15.7065 18.113 16.0316 18.28 16.4742 18.28C17.3211 18.28 17.7447 17.5757 17.7447 16.1676C17.7447 15.3787 17.6324 14.8034 17.4086 14.4416C17.2008 14.1077 16.8759 13.9405 16.4331 13.9405H16.4331Z" fill="#F29111"/>
<path d="M14.2133 4.34374C14.4943 3.65346 15.4765 4.17621 15.8577 4.41733C15.9511 4.47766 16.0583 4.60511 16.1654 4.65222C16.3325 4.65878 16.4995 4.67186 16.6669 4.67885C16.9808 4.75263 17.2749 4.81291 17.5223 4.95382C18.6721 5.63092 19.4205 6.32093 20.1094 7.46064C20.2566 7.70205 20.3301 7.96328 20.4503 8.22452C20.6172 8.61391 20.8047 9.02266 20.9984 9.39086C21.0851 9.56542 21.1522 9.75953 21.2726 9.90696C21.3196 9.97436 21.4532 9.99424 21.533 10.0345C21.7537 10.1487 22.0211 10.2355 22.2286 10.3695C22.6162 10.6112 22.991 10.8992 23.3317 11.1941C23.4587 11.3079 23.5452 11.469 23.6662 11.5893V11.6501C23.5588 11.683 23.4518 11.7168 23.3447 11.7438C23.1107 11.8039 22.9035 11.7903 22.6765 11.8505C22.5363 11.8912 22.3621 11.9448 22.215 11.9585L22.2286 11.9722C22.3152 12.2194 22.7834 12.4205 22.9975 12.5684C23.2575 12.7561 23.4985 12.9837 23.6925 13.2452C23.7595 13.3119 23.8265 13.3726 23.8931 13.4391C23.9397 13.5065 23.9528 13.5937 24 13.6538V13.6741C23.9478 13.6557 23.9102 13.6205 23.8747 13.5838L23.8534 13.5616C23.8322 13.5396 23.8108 13.5179 23.7863 13.5001C23.6388 13.3993 23.4922 13.2787 23.3447 13.185C23.091 13.0241 22.7968 12.9306 22.5363 12.769C22.389 12.6753 22.2486 12.5684 22.1082 12.4611C21.9809 12.367 21.8408 12.1863 21.7608 12.0523C21.7137 11.9782 21.7072 11.8912 21.6534 11.8376C21.663 11.7481 21.745 11.7215 21.8278 11.6997L21.8468 11.6947C21.8753 11.6873 21.9033 11.6799 21.9277 11.6701C22.2752 11.5225 22.6895 11.469 23.2245 11.4824C23.2044 11.348 22.8701 11.1806 22.7633 11.1002C22.5491 10.9458 22.3223 10.7847 22.095 10.6442C21.9746 10.5706 21.7671 10.5168 21.6337 10.4567C21.4532 10.3829 21.052 10.3092 20.9519 10.1687C20.782 9.94713 20.66 9.68289 20.5415 9.41599L20.5092 9.34314C20.4985 9.31887 20.4877 9.2946 20.4769 9.27035C20.3368 8.94892 20.1628 8.61382 20.0224 8.28471C19.949 8.12416 19.9153 7.98325 19.8349 7.82927C19.3471 6.88436 18.6251 6.09325 17.7497 5.53689C17.462 5.35586 17.1412 5.18833 16.7872 5.07447C16.5865 5.01386 16.3456 5.04738 16.1318 5.00088H15.9911C15.871 4.96703 15.7708 4.83972 15.6771 4.7726C15.4701 4.63207 15.2628 4.53771 15.0153 4.43744C14.9286 4.39722 14.681 4.30357 14.5945 4.3773C14.541 4.39075 14.5139 4.41096 14.5007 4.46468C14.4474 4.54483 14.4943 4.66558 14.5274 4.7395C14.6278 4.95372 14.7681 5.08103 14.8954 5.26207C15.0086 5.42261 15.1493 5.60364 15.2296 5.77821C15.4028 6.15344 15.4835 6.56917 15.6441 6.94436C15.7036 7.08546 15.7978 7.246 15.8844 7.37327C15.9579 7.47428 16.0914 7.54732 16.1318 7.67519C16.2124 7.80925 16.0113 8.25161 15.9647 8.3921C15.7906 8.9418 15.8243 9.70591 16.0249 10.1824L16.0356 10.2075L16.0462 10.233C16.1195 10.4075 16.1978 10.5954 16.3925 10.6442C16.4059 10.6309 16.3925 10.6379 16.4191 10.6309C16.4662 10.2621 16.4795 9.90691 16.6066 9.61835C16.68 9.43792 16.8267 9.31038 16.9273 9.1631C16.9943 9.20322 16.9943 9.32421 17.0342 9.40427C17.1212 9.61192 17.2147 9.8396 17.3219 10.0479C17.542 10.4768 17.7897 10.8926 18.0704 11.2678C18.1643 11.4018 18.2977 11.5493 18.418 11.67C18.4716 11.7168 18.5316 11.7438 18.5718 11.8039H18.5849V11.8241C18.3844 11.7502 18.2573 11.5428 18.0974 11.4216C17.7962 11.194 17.4356 10.852 17.2281 10.524C17.1412 10.3356 17.0474 10.1551 16.9538 9.96771V9.95416C16.9139 10.0077 16.9273 10.0608 16.9072 10.1418C16.8204 10.4768 16.8873 10.8588 16.5865 10.9793C16.2455 11.1204 15.9912 10.7516 15.8844 10.5841C15.5434 10.0278 15.4499 9.0895 15.6905 8.33205C15.7439 8.16438 15.7512 7.96328 15.8444 7.82941C15.8243 7.70838 15.731 7.67528 15.6771 7.60113C15.5835 7.47438 15.5034 7.32672 15.4301 7.18596C15.2894 6.91099 15.1893 6.58244 15.0824 6.28755C15.0355 6.16713 15.022 6.04624 14.9752 5.93224C14.8953 5.75824 14.7481 5.58367 14.6345 5.42974C14.4807 5.20849 14.0328 4.77968 14.2133 4.34374ZM16.4058 5.65694C16.4236 5.67485 16.4452 5.6905 16.4675 5.70593L16.4944 5.72439C16.5303 5.74924 16.565 5.77539 16.5863 5.81102C16.62 5.85817 16.6263 5.90472 16.6667 5.95197C16.6667 6.11308 16.62 6.22019 16.5258 6.28694C16.5258 6.28694 16.5194 6.29397 16.5127 6.30053C16.4593 6.19314 16.4125 6.08632 16.3587 5.97902C16.2924 5.88536 16.1987 5.81107 16.1447 5.70405H16.1317V5.6906C16.2124 5.67068 16.2924 5.65694 16.4058 5.65694Z" fill="#00758F"/>
</svg>
