<svg width="24" height="24" viewBox="0 0 24 24" fill="none" xmlns="http://www.w3.org/2000/svg">
<g clip-path="url(#clip0_606_1465)">
<path fill-rule="evenodd" clip-rule="evenodd" d="M3.45388e-07 11.9998C7.72987e-05 9.92916 0.535967 7.89374 1.55556 6.09149C2.57516 4.28925 4.04376 2.7815 5.81857 1.71485C7.59338 0.648212 9.61399 0.0589753 11.6839 0.00443829C13.7539 -0.0500987 15.8027 0.43192 17.6313 1.40363C19.4598 2.37533 21.0057 3.80366 22.1188 5.54972C23.2319 7.29577 23.8742 9.30015 23.9833 11.3679C24.0924 13.4357 23.6646 15.4966 22.7415 17.3501C21.8183 19.2036 20.4313 20.7867 18.7152 21.9454L7.8512 6.73583C7.75276 6.59788 7.61306 6.49476 7.45224 6.44133C7.29142 6.38789 7.11778 6.38691 6.95636 6.43852C6.79495 6.49013 6.65409 6.59167 6.5541 6.7285C6.45411 6.86532 6.40015 7.03036 6.4 7.19983V19.1998H8V9.69583L17.328 22.755C15.4982 23.6617 13.4674 24.0865 11.4276 23.9891C9.38788 23.8916 7.40673 23.2753 5.67169 22.1984C3.93666 21.1215 2.50515 19.6197 1.51265 17.835C0.520154 16.0503 -0.000489539 14.0419 3.45388e-07 11.9998ZM16 15.9998V6.39983H17.6V15.9998H16Z" fill="black"/>
</g>
<defs>
<clipPath id="clip0_606_1465">
<rect width="24" height="24" fill="white"/>
</clipPath>
</defs>
</svg>
